<svg xmlns="http://www.w3.org/2000/svg" width="20" height="20" viewBox="0 0 20 20">
  <g id="calendar" transform="translate(-7.073)">
    <path id="Path_2941" data-name="Path 2941" d="M121.517,4.634a1.3,1.3,0,0,0,1.3-1.3V1.3a1.3,1.3,0,0,0-2.593,0v2.04A1.3,1.3,0,0,0,121.517,4.634Z" transform="translate(-108.67)" fill="rgba(160,176,144,0.89)"/>
    <path id="Path_2942" data-name="Path 2942" d="M335.14,4.634a1.3,1.3,0,0,0,1.3-1.3V1.3a1.3,1.3,0,0,0-2.593,0v2.04A1.3,1.3,0,0,0,335.14,4.634Z" transform="translate(-313.84)" fill="rgba(160,176,144,0.89)"/>
    <path id="Path_2943" data-name="Path 2943" d="M24.27,41.288h-.72v1.283a2.188,2.188,0,0,1-4.373,0V41.288H14.969v1.283a2.188,2.188,0,0,1-4.373,0V41.288h-.72a2.748,2.748,0,0,0-2.8,2.69V56.75a2.748,2.748,0,0,0,2.8,2.69H24.27a2.748,2.748,0,0,0,2.8-2.69V43.978A2.748,2.748,0,0,0,24.27,41.288Zm.6,14.989a1.275,1.275,0,0,1-1.3,1.247H10.577a1.275,1.275,0,0,1-1.3-1.247V46.285H24.867v9.992Z" transform="translate(0 -39.44)" fill="rgba(160,176,144,0.89)"/>
    <rect id="Rectangle_95" data-name="Rectangle 95" width="3.169" height="3.169" transform="translate(15.488 12.776)" fill="rgba(160,176,144,0.89)"/>
    <rect id="Rectangle_96" data-name="Rectangle 96" width="3.169" height="3.169" transform="translate(11.163 12.776)" fill="rgba(160,176,144,0.89)"/>
    <rect id="Rectangle_97" data-name="Rectangle 97" width="3.17" height="3.169" transform="translate(19.813 8.589)" fill="rgba(160,176,144,0.89)"/>
    <rect id="Rectangle_98" data-name="Rectangle 98" width="3.17" height="3.169" transform="translate(19.813 12.776)" fill="rgba(160,176,144,0.89)"/>
    <rect id="Rectangle_99" data-name="Rectangle 99" width="3.169" height="3.169" transform="translate(15.488 8.589)" fill="rgba(160,176,144,0.89)"/>
    <rect id="Rectangle_100" data-name="Rectangle 100" width="3.169" height="3.169" transform="translate(11.163 8.589)" fill="rgba(160,176,144,0.89)"/>
  </g>
</svg>
