<svg xmlns="http://www.w3.org/2000/svg" width="23" height="35" viewBox="0 0 23 35">
  <path id="Union_7" data-name="Union 7" d="M9.216,34.763a11.292,11.292,0,0,1-2.153-.679A11.42,11.42,0,0,1,5.113,33.01,11.66,11.66,0,0,1,.957,27.886,11.719,11.719,0,0,1,.288,25.7a11.908,11.908,0,0,1-.231-2.123H4.647a7.115,7.115,0,0,0,.137,1.209,6.977,6.977,0,0,0,2.895,4.376,6.827,6.827,0,0,0,5.236,1.049,6.784,6.784,0,0,0,1.292-.406,6.853,6.853,0,0,0,1.169-.643,6.982,6.982,0,0,0,2.895-4.376,7.114,7.114,0,0,0,.137-1.209H23a11.905,11.905,0,0,1-.231,2.123,11.679,11.679,0,0,1-3.127,5.889,11.6,11.6,0,0,1-1.7,1.422,11.416,11.416,0,0,1-1.949,1.074,11.371,11.371,0,0,1-6.778.679Zm9.2-11.187V13.982H9.125l.128.13H5.033c.048.138.1.277.157.412A7.03,7.03,0,0,0,7.7,17.616a6.914,6.914,0,0,0,1.179.648,6.893,6.893,0,0,0,4.1.409c.207-.043.415-.1.619-.159l3.336,3.379c-.324.179-.66.343-1,.488a11.33,11.33,0,0,1-8.931,0,11.42,11.42,0,0,1-1.949-1.074A11.661,11.661,0,0,1,.9,16.182,11.719,11.719,0,0,1,.233,14a11.938,11.938,0,0,1,0-4.695A11.679,11.679,0,0,1,3.36,3.412a11.594,11.594,0,0,1,1.7-1.422A11.42,11.42,0,0,1,7.007.915a11.33,11.33,0,0,1,8.931,0,11.418,11.418,0,0,1,1.949,1.074q.267.183.524.382V0H23V23.576ZM10.184,4.9a6.843,6.843,0,0,0-1.3.409A6.914,6.914,0,0,0,7.7,5.96,7.038,7.038,0,0,0,5.189,9.052c-.041.1-.08.2-.117.3H18.093c-.037-.1-.076-.2-.117-.3A7.031,7.031,0,0,0,15.462,5.96a6.914,6.914,0,0,0-1.179-.648,6.893,6.893,0,0,0-4.1-.409Z" fill="#fff"/>
</svg>
