<svg id="money-24px" xmlns="http://www.w3.org/2000/svg" width="24" height="24" viewBox="0 0 24 24">
  <path id="Path_7" data-name="Path 7" d="M0,0H24V24H0Z" fill="none"/>
  <path id="Path_8" data-name="Path 8" d="M5,8H7v8H5Zm7,0H9A1,1,0,0,0,8,9v6a1,1,0,0,0,1,1h3a1,1,0,0,0,1-1V9A1,1,0,0,0,12,8Zm-1,6H10V10h1Zm7-6H15a1,1,0,0,0-1,1v6a1,1,0,0,0,1,1h3a1,1,0,0,0,1-1V9A1,1,0,0,0,18,8Zm-1,6H16V10h1Z" fill="rgba(160,176,144,0.89)"/>
  <path id="Path_9" data-name="Path 9" d="M4,6H20V18H4Z" fill="none"/>
  <path id="Path_10" data-name="Path 10" d="M2,4V20H22V4ZM4,18V6H20V18Z" fill="rgba(160,176,144,0.89)"/>
</svg>
