<svg xmlns="http://www.w3.org/2000/svg" width="233.51" height="192.615" viewBox="0 0 233.51 192.615">
  <g id="Group_29" data-name="Group 29" transform="translate(-595.548 -66.149)">
    <g id="Group_21" data-name="Group 21">
      <g id="Group_17" data-name="Group 17">
        <g id="Group_15" data-name="Group 15">
          <path id="Path_124" data-name="Path 124" d="M672.442,250.38a117.917,117.917,0,0,1-60.41-140.259l-1.577-.487A119.566,119.566,0,0,0,671.71,251.858Z" fill="#233c22" fill-rule="evenodd"/>
        </g>
        <path id="Path_125" data-name="Path 125" d="M659.606,252.228a24.191,24.191,0,0,1,10.4-.5,9.663,9.663,0,0,1-5.711,6.263c-4.684,1.9-11.029-.3-10.939-.3A10.563,10.563,0,0,1,659.606,252.228Z" fill="#233c22" fill-rule="evenodd"/>
        <path id="Path_126" data-name="Path 126" d="M650.724,246.069a25.006,25.006,0,0,1,10.124.381,9.51,9.51,0,0,1-6.091,5.62c-4.722,1.487-10.594-1.283-10.565-1.19A10.408,10.408,0,0,1,650.724,246.069Z" fill="#233c22" fill-rule="evenodd"/>
        <path id="Path_127" data-name="Path 127" d="M642.389,239.208c4.626-.7,9.7,1.247,9.772,1.221a9.36,9.36,0,0,1-6.4,4.958c-4.535.851-10.189-2.062-10.117-2.03A10.232,10.232,0,0,1,642.389,239.208Z" fill="#233c22" fill-rule="evenodd"/>
        <path id="Path_128" data-name="Path 128" d="M634.659,231.7a20.186,20.186,0,0,1,9.363,1.991,8.883,8.883,0,0,1-6.55,4.194c-4.537.517-9.738-2.768-9.611-2.789A9.651,9.651,0,0,1,634.659,231.7Z" fill="#233c22" fill-rule="evenodd"/>
        <path id="Path_129" data-name="Path 129" d="M627.685,223.5a21.993,21.993,0,0,1,8.885,2.706,8.738,8.738,0,0,1-6.717,3.53c-4.516.2-9.1-3.533-9.052-3.489A9.512,9.512,0,0,1,627.685,223.5Z" fill="#233c22" fill-rule="evenodd"/>
        <path id="Path_130" data-name="Path 130" d="M621.416,214.765c4.17.5,8.307,3.344,8.347,3.359a8.573,8.573,0,0,1-6.814,2.865c-4.323-.218-8.454-4.19-8.438-4.117A9.287,9.287,0,0,1,621.416,214.765Z" fill="#233c22" fill-rule="evenodd"/>
        <path id="Path_131" data-name="Path 131" d="M615.9,205.556c4.123.741,7.684,3.966,7.758,3.957a8.241,8.241,0,0,1-6.793,2.173c-4.045-.642-7.884-4.694-7.831-4.652A9.121,9.121,0,0,1,615.9,205.556Z" fill="#233c22" fill-rule="evenodd"/>
        <path id="Path_132" data-name="Path 132" d="M611.178,195.926a17.923,17.923,0,0,1,7.2,4.441,7.927,7.927,0,0,1-6.721,1.509c-3.944-.91-7.253-5.148-7.141-5.13A8.572,8.572,0,0,1,611.178,195.926Z" fill="#233c22" fill-rule="evenodd"/>
        <path id="Path_133" data-name="Path 133" d="M607.4,185.9a19.4,19.4,0,0,1,6.54,4.887,7.769,7.769,0,0,1-6.627.9c-3.816-1.175-6.44-5.6-6.427-5.54A8.362,8.362,0,0,1,607.4,185.9Z" fill="#233c22" fill-rule="evenodd"/>
        <path id="Path_134" data-name="Path 134" d="M604.471,175.616c3.293,1.637,5.8,5.243,5.85,5.258a7.571,7.571,0,0,1-6.482.308c-3.445-1.483-5.687-5.925-5.684-5.865A8.147,8.147,0,0,1,604.471,175.616Z" fill="#233c22" fill-rule="evenodd"/>
        <path id="Path_135" data-name="Path 135" d="M602.428,165.133a15.794,15.794,0,0,1,5.138,5.558,7.173,7.173,0,0,1-6.19-.272c-3.126-1.729-5.039-6.142-5.022-6.09A7.961,7.961,0,0,1,602.428,165.133Z" fill="#233c22" fill-rule="evenodd"/>
        <path id="Path_136" data-name="Path 136" d="M601.273,154.532a15.089,15.089,0,0,1,4.545,5.755,6.942,6.942,0,0,1-5.928-.785c-2.884-1.914-4.44-6.288-4.337-6.241A7.558,7.558,0,0,1,601.273,154.532Z" fill="#233c22" fill-rule="evenodd"/>
        <path id="Path_137" data-name="Path 137" d="M601.07,143.891a15.4,15.4,0,0,1,3.906,5.883,6.74,6.74,0,0,1-5.638-1.246c-2.709-2.074-3.69-6.373-3.638-6.322A7.227,7.227,0,0,1,601.07,143.891Z" fill="#233c22" fill-rule="evenodd"/>
        <path id="Path_138" data-name="Path 138" d="M601.776,133.283a14.546,14.546,0,0,1,3.192,5.95,6.5,6.5,0,0,1-5.29-1.66c-2.293-2.2-2.975-6.4-2.933-6.342A7.055,7.055,0,0,1,601.776,133.283Z" fill="#233c22" fill-rule="evenodd"/>
        <path id="Path_139" data-name="Path 139" d="M603.405,122.789a14.862,14.862,0,0,1,2.557,5.948,6.268,6.268,0,0,1-4.933-2.033c-2.08-2.3-2.239-6.334-2.263-6.292A6.778,6.778,0,0,1,603.405,122.789Z" fill="#233c22" fill-rule="evenodd"/>
        <path id="Path_140" data-name="Path 140" d="M605.9,112.519a13.794,13.794,0,0,1,1.952,5.886,5.97,5.97,0,0,1-4.518-2.349c-1.83-2.378-1.64-6.223-1.644-6.178A6.423,6.423,0,0,1,605.9,112.519Z" fill="#233c22" fill-rule="evenodd"/>
        <path id="Path_141" data-name="Path 141" d="M666.908,240.192c.387,4.769,4.466,8.8,4.486,8.832a11.245,11.245,0,0,0,2.086-8.218c-.729-4.531-4.144-8.463-4.089-8.454A11.448,11.448,0,0,0,666.908,240.192Z" fill="#233c22" fill-rule="evenodd"/>
        <path id="Path_142" data-name="Path 142" d="M658.825,234.986c-.023,4.673,3.553,8.966,3.61,8.941a10.8,10.8,0,0,0,2.7-7.76,19.171,19.171,0,0,0-3.282-8.552A11.024,11.024,0,0,0,658.825,234.986Z" fill="#233c22" fill-rule="evenodd"/>
        <path id="Path_143" data-name="Path 143" d="M651.176,229.125a15.338,15.338,0,0,0,2.755,8.973,10.38,10.38,0,0,0,3.253-7.262,16.852,16.852,0,0,0-2.481-8.585A10.614,10.614,0,0,0,651.176,229.125Z" fill="#233c22" fill-rule="evenodd"/>
        <path id="Path_144" data-name="Path 144" d="M644.026,222.64c-.628,4.213,1.879,8.925,1.925,8.92a10.324,10.324,0,0,0,3.826-6.824c.48-4.28-1.8-8.507-1.7-8.53A10.616,10.616,0,0,0,644.026,222.64Z" fill="#233c22" fill-rule="evenodd"/>
        <path id="Path_145" data-name="Path 145" d="M637.519,215.493c-1.136,4.181,1.121,8.753,1.118,8.8a9.918,9.918,0,0,0,4.249-6.256,18.345,18.345,0,0,0-.948-8.412A10.213,10.213,0,0,0,637.519,215.493Z" fill="#233c22" fill-rule="evenodd"/>
        <path id="Path_146" data-name="Path 146" d="M631.61,207.829a13.753,13.753,0,0,0,.335,8.6,9.5,9.5,0,0,0,4.607-5.665,16.508,16.508,0,0,0-.215-8.232A9.762,9.762,0,0,0,631.61,207.829Z" fill="#233c22" fill-rule="evenodd"/>
        <path id="Path_147" data-name="Path 147" d="M626.34,199.7a14.3,14.3,0,0,0-.409,8.353,9.288,9.288,0,0,0,4.953-5.1,14.99,14.99,0,0,0,.44-7.966A9.388,9.388,0,0,0,626.34,199.7Z" fill="#233c22" fill-rule="evenodd"/>
        <path id="Path_148" data-name="Path 148" d="M621.77,191.132c-1.79,3.341-1.08,7.987-1.045,8a9.028,9.028,0,0,0,5.226-4.511c1.656-3.41,1.01-7.672,1.1-7.66A9.359,9.359,0,0,0,621.77,191.132Z" fill="#233c22" fill-rule="evenodd"/>
        <path id="Path_149" data-name="Path 149" d="M618.036,182.162c-2.2,3.14-1.7,7.6-1.7,7.629a8.642,8.642,0,0,0,5.391-3.887,16.2,16.2,0,0,0,1.716-7.314A8.946,8.946,0,0,0,618.036,182.162Z" fill="#233c22" fill-rule="evenodd"/>
        <path id="Path_150" data-name="Path 150" d="M615.059,172.9a12.135,12.135,0,0,0-2.314,7.208,8.224,8.224,0,0,0,5.492-3.271,14.266,14.266,0,0,0,2.294-6.92A8.526,8.526,0,0,0,615.059,172.9Z" fill="#233c22" fill-rule="evenodd"/>
        <path id="Path_151" data-name="Path 151" d="M612.861,163.4a13.246,13.246,0,0,0-2.868,6.754,8.15,8.15,0,0,0,5.622-2.694,13.047,13.047,0,0,0,2.735-6.469A8.176,8.176,0,0,0,612.861,163.4Z" fill="#233c22" fill-rule="evenodd"/>
        <path id="Path_152" data-name="Path 152" d="M611.471,153.734a12.792,12.792,0,0,0-3.241,6.241,7.8,7.8,0,0,0,5.615-2.109c2.433-2.3,3.05-6.031,3.135-6A7.992,7.992,0,0,0,611.471,153.734Z" fill="#233c22" fill-rule="evenodd"/>
        <path id="Path_153" data-name="Path 153" d="M610.947,143.963c-2.591,1.926-3.6,5.69-3.6,5.713a7.4,7.4,0,0,0,5.538-1.547c2.418-2.011,3.466-5.549,3.5-5.51A7.7,7.7,0,0,0,610.947,143.963Z" fill="#233c22" fill-rule="evenodd"/>
        <path id="Path_154" data-name="Path 154" d="M611.268,134.167a11.5,11.5,0,0,0-3.982,5.173,7.15,7.15,0,0,0,5.435-1.019,12.132,12.132,0,0,0,3.839-5A7.307,7.307,0,0,0,611.268,134.167Z" fill="#233c22" fill-rule="evenodd"/>
        <path id="Path_155" data-name="Path 155" d="M612.439,124.427a10.434,10.434,0,0,0-4.229,4.614,6.764,6.764,0,0,0,5.259-.521,11.9,11.9,0,0,0,4.1-4.467A7.03,7.03,0,0,0,612.439,124.427Z" fill="#233c22" fill-rule="evenodd"/>
        <path id="Path_156" data-name="Path 156" d="M614.421,114.84a10.206,10.206,0,0,0-4.412,4.054,6.519,6.519,0,0,0,5.075-.051,12,12,0,0,0,4.281-3.934A6.773,6.773,0,0,0,614.421,114.84Z" fill="#233c22" fill-rule="evenodd"/>
        <g id="Group_16" data-name="Group 16">
          <path id="Path_157" data-name="Path 157" d="M611.478,104.09a14.265,14.265,0,0,1,3.832-5.558,14.728,14.728,0,0,1-.781,6.659,15.351,15.351,0,0,1-3.59,5.494A13.368,13.368,0,0,1,611.478,104.09Z" fill="#233c22" fill-rule="evenodd"/>
        </g>
      </g>
      <g id="Group_20" data-name="Group 20">
        <g id="Group_18" data-name="Group 18">
          <path id="Path_158" data-name="Path 158" d="M752.893,251.856a119.564,119.564,0,0,0,61.254-142.221l-1.576.487A117.914,117.914,0,0,1,752.16,250.377Z" fill="#233c22" fill-rule="evenodd"/>
        </g>
        <path id="Path_159" data-name="Path 159" d="M757.7,240.193c-.386,4.768-4.466,8.8-4.485,8.831a11.24,11.24,0,0,1-2.086-8.218c.728-4.531,4.144-8.463,4.089-8.454A11.446,11.446,0,0,1,757.7,240.193Z" fill="#233c22" fill-rule="evenodd"/>
        <path id="Path_160" data-name="Path 160" d="M765.78,234.986c.024,4.673-3.553,8.966-3.61,8.942a10.8,10.8,0,0,1-2.7-7.761,19.161,19.161,0,0,1,3.281-8.552A11.028,11.028,0,0,1,765.78,234.986Z" fill="#233c22" fill-rule="evenodd"/>
        <path id="Path_161" data-name="Path 161" d="M773.43,229.125a15.358,15.358,0,0,1-2.755,8.973,10.363,10.363,0,0,1-3.253-7.261,16.851,16.851,0,0,1,2.48-8.586A10.618,10.618,0,0,1,773.43,229.125Z" fill="#233c22" fill-rule="evenodd"/>
        <path id="Path_162" data-name="Path 162" d="M780.579,222.64c.628,4.213-1.88,8.925-1.926,8.921a10.336,10.336,0,0,1-3.825-6.824c-.48-4.281,1.8-8.507,1.7-8.53A10.626,10.626,0,0,1,780.579,222.64Z" fill="#233c22" fill-rule="evenodd"/>
        <path id="Path_163" data-name="Path 163" d="M787.087,215.494c1.135,4.181-1.121,8.753-1.118,8.795a9.9,9.9,0,0,1-4.249-6.255,18.342,18.342,0,0,1,.947-8.413A10.226,10.226,0,0,1,787.087,215.494Z" fill="#233c22" fill-rule="evenodd"/>
        <path id="Path_164" data-name="Path 164" d="M792.995,207.83a13.734,13.734,0,0,1-.336,8.6,9.5,9.5,0,0,1-4.6-5.665,16.482,16.482,0,0,1,.215-8.232A9.762,9.762,0,0,1,792.995,207.83Z" fill="#233c22" fill-rule="evenodd"/>
        <path id="Path_165" data-name="Path 165" d="M798.266,199.7a14.3,14.3,0,0,1,.408,8.352,9.285,9.285,0,0,1-4.952-5.1,15,15,0,0,1-.441-7.966A9.4,9.4,0,0,1,798.266,199.7Z" fill="#233c22" fill-rule="evenodd"/>
        <path id="Path_166" data-name="Path 166" d="M802.835,191.132c1.79,3.342,1.08,7.987,1.045,8a9.037,9.037,0,0,1-5.226-4.511c-1.656-3.41-1.01-7.672-1.1-7.661A9.369,9.369,0,0,1,802.835,191.132Z" fill="#233c22" fill-rule="evenodd"/>
        <path id="Path_167" data-name="Path 167" d="M806.569,182.162c2.2,3.141,1.7,7.6,1.7,7.63a8.643,8.643,0,0,1-5.39-3.887,16.2,16.2,0,0,1-1.717-7.314A8.936,8.936,0,0,1,806.569,182.162Z" fill="#233c22" fill-rule="evenodd"/>
        <path id="Path_168" data-name="Path 168" d="M809.547,172.9a12.125,12.125,0,0,1,2.313,7.208,8.221,8.221,0,0,1-5.492-3.271,14.272,14.272,0,0,1-2.294-6.92A8.535,8.535,0,0,1,809.547,172.9Z" fill="#233c22" fill-rule="evenodd"/>
        <path id="Path_169" data-name="Path 169" d="M811.744,163.4a13.233,13.233,0,0,1,2.868,6.754,8.155,8.155,0,0,1-5.622-2.694,13.041,13.041,0,0,1-2.734-6.47A8.174,8.174,0,0,1,811.744,163.4Z" fill="#233c22" fill-rule="evenodd"/>
        <path id="Path_170" data-name="Path 170" d="M813.135,153.735a12.794,12.794,0,0,1,3.24,6.24,7.784,7.784,0,0,1-5.614-2.109c-2.434-2.3-3.051-6.03-3.136-6A7.989,7.989,0,0,1,813.135,153.735Z" fill="#233c22" fill-rule="evenodd"/>
        <path id="Path_171" data-name="Path 171" d="M813.658,143.964a11.666,11.666,0,0,1,3.595,5.713,7.4,7.4,0,0,1-5.537-1.548c-2.418-2.01-3.467-5.548-3.505-5.51A7.706,7.706,0,0,1,813.658,143.964Z" fill="#233c22" fill-rule="evenodd"/>
        <path id="Path_172" data-name="Path 172" d="M813.338,134.168a11.5,11.5,0,0,1,3.981,5.172,7.137,7.137,0,0,1-5.434-1.019,12.135,12.135,0,0,1-3.84-5A7.3,7.3,0,0,1,813.338,134.168Z" fill="#233c22" fill-rule="evenodd"/>
        <path id="Path_173" data-name="Path 173" d="M812.166,124.427a10.439,10.439,0,0,1,4.229,4.614,6.761,6.761,0,0,1-5.258-.521,11.9,11.9,0,0,1-4.1-4.467A7.03,7.03,0,0,1,812.166,124.427Z" fill="#233c22" fill-rule="evenodd"/>
        <path id="Path_174" data-name="Path 174" d="M810.185,114.84a10.226,10.226,0,0,1,4.412,4.054,6.522,6.522,0,0,1-5.076-.051,12.024,12.024,0,0,1-4.281-3.934A6.777,6.777,0,0,1,810.185,114.84Z" fill="#233c22" fill-rule="evenodd"/>
        <path id="Path_175" data-name="Path 175" d="M765,252.228a24.186,24.186,0,0,0-10.4-.5,9.66,9.66,0,0,0,5.711,6.263c4.683,1.9,11.029-.3,10.937-.3A10.556,10.556,0,0,0,765,252.228Z" fill="#233c22" fill-rule="evenodd"/>
        <path id="Path_176" data-name="Path 176" d="M773.881,246.07a24.962,24.962,0,0,0-10.124.381,9.507,9.507,0,0,0,6.091,5.619c4.721,1.487,10.593-1.283,10.564-1.19A10.4,10.4,0,0,0,773.881,246.07Z" fill="#233c22" fill-rule="evenodd"/>
        <path id="Path_177" data-name="Path 177" d="M782.216,239.208c-4.626-.7-9.7,1.248-9.773,1.221a9.36,9.36,0,0,0,6.4,4.959c4.535.85,10.188-2.063,10.116-2.031A10.229,10.229,0,0,0,782.216,239.208Z" fill="#233c22" fill-rule="evenodd"/>
        <path id="Path_178" data-name="Path 178" d="M789.946,231.7a20.173,20.173,0,0,0-9.364,1.992,8.889,8.889,0,0,0,6.551,4.193c4.537.518,9.738-2.768,9.611-2.789A9.659,9.659,0,0,0,789.946,231.7Z" fill="#233c22" fill-rule="evenodd"/>
        <path id="Path_179" data-name="Path 179" d="M796.92,223.5a22,22,0,0,0-8.885,2.707,8.735,8.735,0,0,0,6.716,3.529c4.518.2,9.1-3.533,9.053-3.489A9.522,9.522,0,0,0,796.92,223.5Z" fill="#233c22" fill-rule="evenodd"/>
        <path id="Path_180" data-name="Path 180" d="M803.189,214.766c-4.17.5-8.306,3.344-8.347,3.359a8.576,8.576,0,0,0,6.814,2.865c4.323-.219,8.453-4.19,8.438-4.117A9.289,9.289,0,0,0,803.189,214.766Z" fill="#233c22" fill-rule="evenodd"/>
        <path id="Path_181" data-name="Path 181" d="M808.709,205.557c-4.123.741-7.684,3.966-7.758,3.956a8.237,8.237,0,0,0,6.793,2.174c4.045-.642,7.885-4.694,7.831-4.653A9.123,9.123,0,0,0,808.709,205.557Z" fill="#233c22" fill-rule="evenodd"/>
        <path id="Path_182" data-name="Path 182" d="M813.428,195.926a17.919,17.919,0,0,0-7.2,4.442,7.936,7.936,0,0,0,6.721,1.509c3.944-.911,7.253-5.148,7.142-5.13A8.568,8.568,0,0,0,813.428,195.926Z" fill="#233c22" fill-rule="evenodd"/>
        <path id="Path_183" data-name="Path 183" d="M817.209,185.9a19.393,19.393,0,0,0-6.539,4.887,7.769,7.769,0,0,0,6.628.9c3.815-1.175,6.439-5.6,6.427-5.539A8.362,8.362,0,0,0,817.209,185.9Z" fill="#233c22" fill-rule="evenodd"/>
        <path id="Path_184" data-name="Path 184" d="M820.135,175.616c-3.293,1.638-5.8,5.243-5.851,5.259a7.574,7.574,0,0,0,6.483.308c3.445-1.484,5.686-5.926,5.683-5.865A8.141,8.141,0,0,0,820.135,175.616Z" fill="#233c22" fill-rule="evenodd"/>
        <path id="Path_185" data-name="Path 185" d="M822.178,165.134a15.782,15.782,0,0,0-5.139,5.558,7.171,7.171,0,0,0,6.19-.273c3.126-1.729,5.04-6.142,5.022-6.09A7.967,7.967,0,0,0,822.178,165.134Z" fill="#233c22" fill-rule="evenodd"/>
        <path id="Path_186" data-name="Path 186" d="M823.332,154.532a15.094,15.094,0,0,0-4.545,5.756,6.944,6.944,0,0,0,5.929-.785c2.884-1.915,4.439-6.289,4.337-6.242A7.56,7.56,0,0,0,823.332,154.532Z" fill="#233c22" fill-rule="evenodd"/>
        <path id="Path_187" data-name="Path 187" d="M823.535,143.892a15.387,15.387,0,0,0-3.9,5.882,6.737,6.737,0,0,0,5.638-1.246c2.709-2.073,3.689-6.372,3.638-6.322A7.232,7.232,0,0,0,823.535,143.892Z" fill="#233c22" fill-rule="evenodd"/>
        <path id="Path_188" data-name="Path 188" d="M822.829,133.283a14.536,14.536,0,0,0-3.191,5.95,6.5,6.5,0,0,0,5.29-1.66c2.293-2.2,2.974-6.4,2.932-6.341A7.052,7.052,0,0,0,822.829,133.283Z" fill="#233c22" fill-rule="evenodd"/>
        <path id="Path_189" data-name="Path 189" d="M821.2,122.789a14.86,14.86,0,0,0-2.556,5.949,6.265,6.265,0,0,0,4.932-2.034c2.08-2.3,2.24-6.333,2.264-6.291A6.774,6.774,0,0,0,821.2,122.789Z" fill="#233c22" fill-rule="evenodd"/>
        <path id="Path_190" data-name="Path 190" d="M818.708,112.52a13.776,13.776,0,0,0-1.952,5.886,5.978,5.978,0,0,0,4.518-2.35c1.829-2.378,1.639-6.223,1.644-6.177A6.422,6.422,0,0,0,818.708,112.52Z" fill="#233c22" fill-rule="evenodd"/>
        <g id="Group_19" data-name="Group 19">
          <path id="Path_191" data-name="Path 191" d="M810.075,105.192a15.654,15.654,0,0,1-.911-6.6,13.439,13.439,0,0,1,3.962,5.5,12.347,12.347,0,0,1,.4,6.636A16.973,16.973,0,0,1,810.075,105.192Z" fill="#233c22" fill-rule="evenodd"/>
        </g>
      </g>
    </g>
    <g id="Group_27" data-name="Group 27">
      <g id="Group_22" data-name="Group 22">
        <path id="Path_192" data-name="Path 192" d="M697.223,198.513s-.2-6.434,5.9-6.988c6.273-.571,6.937,4.717,6.937,4.717a25.962,25.962,0,0,0-6.246-.275A15.552,15.552,0,0,0,697.223,198.513Z" fill="#b26c28" stroke="#b26c28" stroke-width="0.532"/>
        <path id="Path_193" data-name="Path 193" d="M680.509,194.578s-.277-4.857,4.579-5,7.631,7.629,7.631,7.629-3.467-4.855-7.212-4.714S680.509,194.578,680.509,194.578Z" fill="#b26c28" stroke="#b26c28" stroke-width="0.532"/>
        <path id="Path_194" data-name="Path 194" d="M680.232,180.566s3.192-4.164,7.355-4.164,6.1,6.384,6.1,6.384-3.339-2.713-6.381-2.912A20.251,20.251,0,0,0,680.232,180.566Z" fill="#b26c28" stroke="#b26c28" stroke-width="0.532"/>
        <path id="Path_195" data-name="Path 195" d="M698.268,183.618s-.551-7.216,6.244-7.075,6.244,7.213,6.244,7.213a11.348,11.348,0,0,0-6.244-1.942A15.528,15.528,0,0,0,698.268,183.618Z" fill="#b26c28" stroke="#b26c28" stroke-width="0.532"/>
        <path id="Path_196" data-name="Path 196" d="M714.5,198.46a22.744,22.744,0,0,1,6.936-1.939,24.172,24.172,0,0,1,6.522.416s-1.11-6.8-7.909-5.552C714.937,192.328,714.5,198.46,714.5,198.46Z" fill="#b26c28" stroke="#b26c28" stroke-width="0.532"/>
        <path id="Path_197" data-name="Path 197" d="M715.193,183.343a12.552,12.552,0,0,1,6.243-2.777,13.143,13.143,0,0,1,6.522.972s-1.942-5.133-7.353-4.438S715.193,183.343,715.193,183.343Z" fill="#b26c28" stroke="#b26c28" stroke-width="0.532"/>
        <path id="Path_198" data-name="Path 198" d="M744.329,194.716s-1.664-5.271-6.8-4.576-5.411,7.766-5.411,7.766,2.218-3.744,5.687-4.163A13.622,13.622,0,0,1,744.329,194.716Z" fill="#b26c28" stroke="#b26c28" stroke-width="0.532"/>
        <path id="Path_199" data-name="Path 199" d="M745.855,180.287s-2.5-4.16-6.662-3.885-5.962,6.663-5.962,6.663a9.83,9.83,0,0,1,5.962-3.469A16.219,16.219,0,0,1,745.855,180.287Z" fill="#b26c28" stroke="#b26c28" stroke-width="0.532"/>
      </g>
      <g id="Group_23" data-name="Group 23">
        <path id="Path_200" data-name="Path 200" d="M664.278,177.1s4.376-1.74,7.632-.832c5.963,1.664,4.854,11.929,4.854,11.929s-1.8-5.267-4.854-8.463C669.264,176.965,664.278,177.1,664.278,177.1Z" fill="#b26c28" stroke="#b26c28" stroke-width="0.532"/>
        <path id="Path_201" data-name="Path 201" d="M750.435,189.3s-2.227-8.781,1.388-11.514c5.133-3.885,8.461,2.5,8.461,2.5s-3.328-1.664-6.1.416S750.435,189.3,750.435,189.3Z" fill="#b26c28" stroke="#b26c28" stroke-width="0.532"/>
        <path id="Path_202" data-name="Path 202" d="M771.522,167.523s-3.19-3.61-7.075-.97-2.774,9.849-2.774,9.849.832-4.719,3.747-7.215A7.176,7.176,0,0,1,771.522,167.523Z" fill="#b26c28" stroke="#b26c28" stroke-width="0.532"/>
        <path id="Path_203" data-name="Path 203" d="M782.9,165.442s-5.273-2.636-7.631.141-.692,8.88-.692,8.88a13.455,13.455,0,0,1,3.325-6.246C780.54,165.583,782.9,165.442,782.9,165.442Z" fill="#b26c28" stroke="#b26c28" stroke-width="0.532"/>
      </g>
      <g id="Group_25" data-name="Group 25">
        <path id="Path_204" data-name="Path 204" d="M786.924,146.575s-4.72-2.22-6.941,1.111,1.389,8.877,1.389,8.877-1.245-5.133.694-8.045A4.319,4.319,0,0,1,786.924,146.575Z" fill="#b26c28" stroke="#b26c28" stroke-width="0.532"/>
        <path id="Path_205" data-name="Path 205" d="M781.788,126.319s-4.16-.553-4.854,3.472,4.3,6.794,4.3,6.794a11.009,11.009,0,0,1-1.107-5.827A9.554,9.554,0,0,1,781.788,126.319Z" fill="#b26c28" stroke="#b26c28" stroke-width="0.532"/>
        <path id="Path_206" data-name="Path 206" d="M781.1,117.856a5.031,5.031,0,0,1-5.69-1.111c-2.774-2.637-.278-6.934-.278-6.934a7.288,7.288,0,0,0,1.942,5.683C779.43,117.718,781.1,117.856,781.1,117.856Z" fill="#b26c28" stroke="#b26c28" stroke-width="0.532"/>
        <g id="Group_24" data-name="Group 24">
          <path id="Path_207" data-name="Path 207" d="M792.194,151.151a6.529,6.529,0,0,0-4.3,5.133c-.493,2.189,1.11,6.243,1.11,6.243a38.522,38.522,0,0,1,.554-6.38A10.264,10.264,0,0,1,792.194,151.151Z" fill="#b26c28" stroke="#b26c28" stroke-width="0.532"/>
          <path id="Path_208" data-name="Path 208" d="M791.913,144.911s-4.022-3.193-3.744-6.662a5.758,5.758,0,0,1,2.774-4.714,8.51,8.51,0,0,0-.966,4.576A17.251,17.251,0,0,0,791.913,144.911Z" fill="#b26c28" stroke="#b26c28" stroke-width="0.532"/>
          <path id="Path_209" data-name="Path 209" d="M788.723,126.732a6.5,6.5,0,0,1-3.879-3.325c-1.254-2.636-.557-7.356-.557-7.356s1.107,3.19,1.942,5.549A34.232,34.232,0,0,0,788.723,126.732Z" fill="#b26c28" stroke="#b26c28" stroke-width="0.532"/>
          <path id="Path_210" data-name="Path 210" d="M781.234,108.976a9.3,9.3,0,0,1-5.689-2.634c-2.912-2.637-2.359-7.216-2.359-7.216A13.621,13.621,0,0,0,776.1,104.4,26.759,26.759,0,0,0,781.234,108.976Z" fill="#b26c28" stroke="#b26c28" stroke-width="0.532"/>
          <path id="Path_211" data-name="Path 211" d="M767.638,92.467a6.871,6.871,0,0,1-4.026-1.805,5.158,5.158,0,0,1-1.664-3.331s1.111.973,2.221,2.086S767.638,92.467,767.638,92.467Z" fill="#b26c28" stroke="#b26c28" stroke-width="0.532"/>
          <path id="Path_212" data-name="Path 212" d="M656.447,92.467a6.871,6.871,0,0,0,4.026-1.805,5.158,5.158,0,0,0,1.664-3.331s-1.111.973-2.221,2.086S656.447,92.467,656.447,92.467Z" fill="#b26c28" stroke="#b26c28" stroke-width="0.532"/>
          <path id="Path_213" data-name="Path 213" d="M754.6,81.645a11.471,11.471,0,0,1-5-.692c-2.223-.972-1.8-3.609-1.8-3.609a13,13,0,0,0,2.771,2.358A17.556,17.556,0,0,0,754.6,81.645Z" fill="#b26c28" stroke="#b26c28" stroke-width="0.532"/>
          <path id="Path_214" data-name="Path 214" d="M670.592,81.645a11.467,11.467,0,0,0,4.995-.692c2.223-.972,1.8-3.609,1.8-3.609a13.016,13.016,0,0,1-2.772,2.358A17.564,17.564,0,0,1,670.592,81.645Z" fill="#b26c28" stroke="#b26c28" stroke-width="0.532"/>
          <path id="Path_215" data-name="Path 215" d="M740.166,74.569a9.106,9.106,0,0,1-5.687.279c-3.328-.832-3.884-3.194-3.884-3.194a13.017,13.017,0,0,0,4.438,1.943A28.722,28.722,0,0,0,740.166,74.569Z" fill="#b26c28" stroke="#b26c28" stroke-width="0.532"/>
          <path id="Path_216" data-name="Path 216" d="M723.1,69.993s-.968,1.661-4.577,1.661a7.607,7.607,0,0,1-5.411-1.939,27.309,27.309,0,0,0,5.271.694A31.174,31.174,0,0,0,723.1,69.993Z" fill="#b26c28" stroke="#b26c28" stroke-width="0.532"/>
          <path id="Path_217" data-name="Path 217" d="M706.73,69.574a7.608,7.608,0,0,1-4.577,2.775,8.5,8.5,0,0,1-5.827-.97,16.048,16.048,0,0,0,5.827-.138A26.257,26.257,0,0,0,706.73,69.574Z" fill="#b26c28" stroke="#b26c28" stroke-width="0.532"/>
          <path id="Path_218" data-name="Path 218" d="M689.11,72.9s-.969,3.191-3.6,4.023a11.384,11.384,0,0,1-5.97-.276,14.578,14.578,0,0,0,5.413-.832A15.9,15.9,0,0,0,689.11,72.9Z" fill="#b26c28" stroke="#b26c28" stroke-width="0.532"/>
          <path id="Path_219" data-name="Path 219" d="M643.746,110.089a4.831,4.831,0,0,0,3.607-2.637c1.387-2.5,1.111-6.243,1.111-6.243a31.045,31.045,0,0,1-2.083,4.576C645.408,107.312,643.746,110.089,643.746,110.089Z" fill="#b26c28" stroke="#b26c28" stroke-width="0.532"/>
          <path id="Path_220" data-name="Path 220" d="M636.81,124.652a7.326,7.326,0,0,0,3.328-3.468c.969-2.359.276-6.657.276-6.657s-.973,3.191-1.525,5.271A27.5,27.5,0,0,1,636.81,124.652Z" fill="#b26c28" stroke="#b26c28" stroke-width="0.532"/>
          <path id="Path_221" data-name="Path 221" d="M634.588,131.593a3.077,3.077,0,0,1,2.773,2.774c.141,2.493-2.773,7.77-2.773,7.77a49.947,49.947,0,0,0,.556-5.827A25.478,25.478,0,0,0,634.588,131.593Z" fill="#b26c28" stroke="#b26c28" stroke-width="0.532"/>
          <path id="Path_222" data-name="Path 222" d="M633.338,149.487s3.193-1.11,3.051,2.359-2.356,7.769-2.356,7.769a38.968,38.968,0,0,0-.139-5.827A33.29,33.29,0,0,1,633.338,149.487Z" fill="#b26c28" stroke="#b26c28" stroke-width="0.532"/>
        </g>
        <path id="Path_223" data-name="Path 223" d="M640.554,148.239s.967-2.5,2.5-2.358,2.357,1.939,2.5,4.022-1.525,8.6-1.525,8.6-.276-4.72-1.387-7.078A10.2,10.2,0,0,0,640.554,148.239Z" fill="#b26c28" stroke="#b26c28" stroke-width="0.532"/>
        <path id="Path_224" data-name="Path 224" d="M642.494,162.668s1.112-2.224,2.914-2.358,3.607.969,4.72,3.19.968,6.8.968,6.8a26.81,26.81,0,0,0-4.3-4.992A21.717,21.717,0,0,0,642.494,162.668Z" fill="#b26c28" stroke="#b26c28" stroke-width="0.532"/>
      </g>
      <path id="Path_225" data-name="Path 225" d="M794.447,152.994s-1.412,7.77-4.236,10.948-7.061,3.531-10.236,5.649-2.119,6-2.825,8.473-1.415,2.469-4.945,2.469-7.412-1.412-9.53.706-1.767,6.706-4.591,8.118-5.646,1.061-9.533,3.534-4.588,6.357-6.706,8.827-4.591,1.764-6.709.351-3.882-4.59-8.47-1.763-7.414,3.53-9.531,1.412-3.533-2.118-6.358-.352-5.3,5.646-8.824,2.116-6.005-1.764-10.592-1.764-7.061-1.058-9.885-4.588-3.177-7.418-8.476-7.418-6-2.118-8.821-6-2.825-4.942-6.005-6-4.912-.844-6-2.824a1.913,1.913,0,0,0-3.073-.513c-.513.484-3.99.513-5.4-.9-3.9-3.9-.705-6-3.177-8.473s-2.825-3.885-6.356-3.53-4.2-5.2-4.2-5.2l.076.014A82.447,82.447,0,0,0,794.57,152.5c.047-1.081.065-2.168.065-3.261Z" fill="#b26c28"/>
      <path id="Path_226" data-name="Path 226" d="M794.746,149.394A82.443,82.443,0,1,1,712.3,66.946,82.444,82.444,0,0,1,794.746,149.394Z" fill="none" stroke="#b26c28" stroke-width="1.595"/>
      <g id="Group_26" data-name="Group 26">
        <path id="Path_227" data-name="Path 227" d="M706.822,214.3c-.491,2.059-4.047,2.982-7.935,2.059s-6.66-3.345-6.168-5.408,4.043-2.985,7.935-2.059S707.312,212.235,706.822,214.3Z" fill="#fff"/>
        <path id="Path_228" data-name="Path 228" d="M726.057,213.885c-.024,2.118-3.291,3.8-7.295,3.741s-7.223-1.808-7.2-3.929,3.294-3.794,7.3-3.741S726.086,211.767,726.057,213.885Z" fill="#fff"/>
        <path id="Path_229" data-name="Path 229" d="M649.958,192.867c-1.345.865-4.118-1.028-6.193-4.221s-2.669-6.481-1.33-7.339,4.119,1.025,6.194,4.218S651.3,192,649.958,192.867Z" fill="#fff"/>
        <path id="Path_230" data-name="Path 230" d="M660.54,205.655c-1.359,1.134-4.477-.36-6.966-3.322s-3.4-6.287-2.046-7.421,4.48.355,6.968,3.322S661.9,204.524,660.54,205.655Z" fill="#fff"/>
        <path id="Path_231" data-name="Path 231" d="M676.545,215.956c-.853,1.348-4.152.8-7.373-1.213s-5.141-4.737-4.287-6.082,4.152-.8,7.374,1.216S677.394,214.614,676.545,215.956Z" fill="#fff"/>
        <path id="Path_232" data-name="Path 232" d="M769.413,182.678c1.734,1.219,1.465,4.567-.6,7.479s-5.141,4.284-6.873,3.065-1.462-4.573.6-7.486S767.682,181.456,769.413,182.678Z" fill="#fff"/>
        <path id="Path_233" data-name="Path 233" d="M757.264,197.669c.917,1.477-1.09,4.4-4.48,6.522s-6.888,2.651-7.8,1.174,1.093-4.4,4.483-6.527S756.35,196.19,757.264,197.669Z" fill="#fff"/>
        <path id="Path_234" data-name="Path 234" d="M741.848,208.515c.7,1.8-1.541,4.324-5.01,5.628s-6.859.9-7.559-.906,1.538-4.327,5.01-5.63S741.142,206.707,741.848,208.515Z" fill="#fff"/>
        <path id="Path_235" data-name="Path 235" d="M689.916,213.079c-.713,2-4.35,2.526-8.115,1.181s-6.25-4.058-5.537-6.053,4.345-2.522,8.115-1.178S690.625,211.087,689.916,213.079Z" fill="#fff"/>
        <path id="Path_236" data-name="Path 236" d="M674.062,204.457c-1.287,1.688-4.908,1.087-8.09-1.333s-4.729-5.754-3.447-7.441,4.907-1.087,8.092,1.333S675.344,202.773,674.062,204.457Z" fill="#fff"/>
        <path id="Path_237" data-name="Path 237" d="M660.663,191.634c-1.724,1.239-5.011-.39-7.348-3.642s-2.84-6.885-1.12-8.121,5.014.393,7.349,3.642S662.383,190.4,660.663,191.634Z" fill="#fff"/>
        <path id="Path_238" data-name="Path 238" d="M691.58,221.575c-.249,1.116-2.551,1.553-5.143.976s-4.492-1.948-4.242-3.065,2.55-1.552,5.141-.975S691.826,220.459,691.58,221.575Z" fill="#fff"/>
        <path id="Path_239" data-name="Path 239" d="M707.361,224.9c-.144,1.046-2.489,1.582-5.236,1.2s-4.858-1.536-4.713-2.578,2.488-1.583,5.236-1.2S707.508,223.86,707.361,224.9Z" fill="#fff"/>
        <path id="Path_240" data-name="Path 240" d="M723.183,224.848c0,1.268-2.277,2.288-5.091,2.288s-5.086-1.02-5.086-2.288,2.279-2.288,5.086-2.288S723.183,223.585,723.183,224.848Z" fill="#fff"/>
        <path id="Path_241" data-name="Path 241" d="M738.856,219.437c.273.873-1.629,2.235-4.245,3.049s-4.96.765-5.232-.108,1.635-2.238,4.251-3.053S738.584,218.566,738.856,219.437Z" fill="#fff"/>
        <path id="Path_242" data-name="Path 242" d="M752.995,211.907c.4.9-1.406,2.581-4.031,3.756s-5.086,1.4-5.49.507,1.406-2.581,4.034-3.756S752.594,211.011,752.995,211.907Z" fill="#fff"/>
        <path id="Path_243" data-name="Path 243" d="M766.592,201.9c.577.882-.911,2.871-3.325,4.448s-4.832,2.132-5.406,1.254.911-2.875,3.323-4.448S766.018,201.021,766.592,201.9Z" fill="#fff"/>
        <path id="Path_244" data-name="Path 244" d="M778.173,185.06c1.022.811.325,3.4-1.562,5.786s-4.248,3.656-5.27,2.847-.322-3.395,1.561-5.783S777.147,184.251,778.173,185.06Z" fill="#fff"/>
        <path id="Path_245" data-name="Path 245" d="M784.838,168.935c1.362.342,1.851,3.052,1.093,6.047s-2.476,5.144-3.838,4.8-1.852-3.052-1.093-6.05S783.476,168.589,784.838,168.935Z" fill="#fff"/>
      </g>
    </g>
  </g>
</svg>
