<svg id="emoji_events-24px" xmlns="http://www.w3.org/2000/svg" width="40" height="40" viewBox="0 0 40 40">
  <rect id="Rectangle_1" data-name="Rectangle 1" width="40" height="40" fill="none"/>
  <path id="Path_11" data-name="Path 11" d="M33.222,6.778H29.444V3H10.556V6.778H6.778A3.789,3.789,0,0,0,3,10.556v1.889a9.428,9.428,0,0,0,8.292,9.331,9.462,9.462,0,0,0,6.819,5.591v5.856H10.556V37H29.444V33.222H21.889V27.367a9.462,9.462,0,0,0,6.819-5.591A9.428,9.428,0,0,0,37,12.444V10.556A3.789,3.789,0,0,0,33.222,6.778ZM6.778,12.444V10.556h3.778v7.216A5.686,5.686,0,0,1,6.778,12.444Zm26.444,0a5.686,5.686,0,0,1-3.778,5.327V10.556h3.778Z" fill="#50c27c"/>
</svg>
