<svg id="emoji_events-24px" xmlns="http://www.w3.org/2000/svg" width="24" height="24" viewBox="0 0 24 24">
  <rect id="Rectangle_1" data-name="Rectangle 1" width="24" height="24" fill="none"/>
  <path id="Path_11" data-name="Path 11" d="M19,5H17V3H7V5H5A2.006,2.006,0,0,0,3,7V8a4.991,4.991,0,0,0,4.39,4.94A5.009,5.009,0,0,0,11,15.9V19H7v2H17V19H13V15.9a5.009,5.009,0,0,0,3.61-2.96A4.991,4.991,0,0,0,21,8V7A2.006,2.006,0,0,0,19,5ZM5,8V7H7v3.82A3.01,3.01,0,0,1,5,8ZM19,8a3.01,3.01,0,0,1-2,2.82V7h2Z" fill="rgba(160,176,144,0.89)"/>
</svg>
